<?xml version="1.0" encoding="utf-8"?>
<!-- Uploaded to: SVG Repo, www.svgrepo.com, Generator: SVG Repo Mixer Tools -->
<svg width="800px" height="800px" viewBox="0 0 1024 1024" class="icon"  version="1.1" xmlns="http://www.w3.org/2000/svg"><path d="M193.536 174.08h209.408l120.832 133.632c6.656 7.168 16.384 11.264 25.088 11.264v0.512h283.136v51.712H901.12V283.648c0-19.456-15.36-35.328-34.304-35.328h-302.592L444.416 115.712c-6.656-7.68-15.872-12.8-26.624-12.8H159.232c-19.456 0-34.816 15.36-34.816 35.328v232.96h69.12V174.08z" fill="#5FFFBA" /><path d="M927.232 371.2H94.72c-18.432 2.048-32.256 20.48-29.696 39.424l54.784 452.096c0.512 11.776 6.656 20.992 15.872 27.136 6.144 6.144 14.336 9.728 23.552 9.728h707.584c9.728 0 17.92-3.584 24.064-10.24 8.192-5.12 14.336-14.848 15.872-25.6l54.784-452.096v-5.632c0-18.944-15.36-34.816-34.304-34.816zM841.728 824.32H184.832L138.24 442.368h750.592l-47.104 381.952z" fill="#FFA28D" /></svg>