<svg id="visual" viewBox="0 0 540 960" width="540" height="960" xmlns="http://www.w3.org/2000/svg" xmlns:xlink="http://www.w3.org/1999/xlink" version="1.1"><rect x="0" y="0" width="540" height="960" fill="#e1e1e1"></rect><path d="M0 273L15 284.2C30 295.3 60 317.7 90 315.2C120 312.7 150 285.3 180 257.3C210 229.3 240 200.7 270 210.3C300 220 330 268 360 286.8C390 305.7 420 295.3 450 294C480 292.7 510 300.3 525 304.2L540 308L540 0L525 0C510 0 480 0 450 0C420 0 390 0 360 0C330 0 300 0 270 0C240 0 210 0 180 0C150 0 120 0 90 0C60 0 30 0 15 0L0 0Z" fill="#00e026" stroke-linecap="round" stroke-linejoin="miter"></path></svg>